<svg height="101" viewBox="0 0 101 101" width="101" xmlns="http://www.w3.org/2000/svg"><g fill="none" stroke="#fff" stroke-width="2" transform="translate(6 19)"><path d="m17.6886598-1v35.709434c0 4.8234981.7038464 8.4408991 2.1974647 10.820213 1.4079588 2.2428595 3.9463553 3.2760134 7.4973807 3.2760134 4.1476818 0 7.1986414-1.1865396 9.0702882-3.6984329 1.9468971-2.6128851 2.8575468-6.9294694 2.8575468-12.89402v-33.2132075h18.6886598v63.454717h-17.8659794v-6.5942919c-2.1081611 2.5053692-4.4396973 4.3903468-7.1537031 5.667091-3.5077401 1.6501389-7.0974499 2.4724839-10.7679464 2.4724839-4.6242342 0-8.4127947-.6294117-11.3724767-1.8596097-3.03824723-1.2628537-5.42490451-3.0587604-7.17199015-5.372738-1.72718826-2.287624-2.94768255-5.0715262-3.64704226-8.3586067-.67930431-3.1928175-1.02086199-6.7290208-1.02086199-10.6090456v-38.8z" fill="#000"/><path d="m75.2585478 21h14.6215605l-13.8718636 19.5494642 15.4848719 22.071942h-14.9978126l-7.8264213-11.6939349-7.8264213 11.6939349h-14.74856l15.0864019-21.8411365-13.8637731-19.7802697h14.9916349l6.5109659 9.5624989z" fill="#577a27"/></g></svg>