<?xml version="1.0" encoding="UTF-8"?>
<svg width="137px" height="98px" viewBox="0 0 137 98" version="1.1" xmlns="http://www.w3.org/2000/svg" xmlns:xlink="http://www.w3.org/1999/xlink">
    <g stroke="none">
        <g transform="translate(3.24, 28.16)" fill-rule="nonzero" fill="#000000">
            <path d="M29.1,42.84 L29.1,11.82 L20.58,11.82 L20.58,28.08 C20.58,31.24 20.06,33.51 19.02,34.89 C17.98,36.27 16.3,36.96 13.98,36.96 C11.94,36.96 10.52,36.33 9.72,35.07 C8.92,33.81 8.52,31.9 8.52,29.34 L8.52,11.82 L0,11.82 L0,30.9 C0,32.82 0.17,34.57 0.51,36.15 C0.85,37.73 1.44,39.07 2.28,40.17 C3.12,41.27 4.27,42.12 5.73,42.72 C7.19,43.32 9.06,43.62 11.34,43.62 C13.14,43.62 14.9,43.22 16.62,42.42 C18.34,41.62 19.74,40.32 20.82,38.52 L21,38.52 L21,42.84 L29.1,42.84 Z"/>
            <path d="M42.18,32.76 L34.08,32.76 C34.16,34.84 34.63,36.57 35.49,37.95 C36.35,39.33 37.45,40.44 38.79,41.28 C40.13,42.12 41.66,42.72 43.38,43.08 C45.1,43.44 46.86,43.62 48.66,43.62 C50.42,43.62 52.15,43.45 53.85,43.11 C55.55,42.77 57.06,42.18 58.38,41.34 C59.7,40.5 60.77,39.39 61.59,38.01 C62.41,36.63 62.82,34.92 62.82,32.88 C62.82,31.44 62.54,30.23 61.98,29.25 C61.42,28.27 60.68,27.45 59.76,26.79 C58.84,26.13 57.79,25.6 56.61,25.2 C55.43,24.8 54.22,24.46 52.98,24.18 C51.78,23.9 50.6,23.64 49.44,23.4 C48.28,23.16 47.25,22.89 46.35,22.59 C45.45,22.29 44.72,21.9 44.16,21.42 C43.6,20.94 43.32,20.32 43.32,19.56 C43.32,18.92 43.48,18.41 43.8,18.03 C44.12,17.65 44.51,17.36 44.97,17.16 C45.43,16.96 45.94,16.83 46.5,16.77 C47.06,16.71 47.58,16.68 48.06,16.68 C49.58,16.68 50.9,16.97 52.02,17.55 C53.14,18.13 53.76,19.24 53.88,20.88 L61.98,20.88 C61.82,18.96 61.33,17.37 60.51,16.11 C59.69,14.85 58.66,13.84 57.42,13.08 C56.18,12.32 54.77,11.78 53.19,11.46 C51.61,11.14 49.98,10.98 48.3,10.98 C46.62,10.98 44.98,11.13 43.38,11.43 C41.78,11.73 40.34,12.25 39.06,12.99 C37.78,13.73 36.75,14.74 35.97,16.02 C35.19,17.3 34.8,18.94 34.8,20.94 C34.8,22.3 35.08,23.45 35.64,24.39 C36.2,25.33 36.94,26.11 37.86,26.73 C38.78,27.35 39.83,27.85 41.01,28.23 C42.19,28.61 43.4,28.94 44.64,29.22 C47.68,29.86 50.05,30.5 51.75,31.14 C53.45,31.78 54.3,32.74 54.3,34.02 C54.3,34.78 54.12,35.41 53.76,35.91 C53.4,36.41 52.95,36.81 52.41,37.11 C51.87,37.41 51.27,37.63 50.61,37.77 C49.95,37.91 49.32,37.98 48.72,37.98 C47.88,37.98 47.07,37.88 46.29,37.68 C45.51,37.48 44.82,37.17 44.22,36.75 C43.62,36.33 43.13,35.79 42.75,35.13 C42.37,34.47 42.18,33.68 42.18,32.76 Z"/>
            <path d="M90.54,27.36 C90.54,28.64 90.4,29.88 90.12,31.08 C89.84,32.28 89.4,33.34 88.8,34.26 C88.2,35.18 87.45,35.91 86.55,36.45 C85.65,36.99 84.56,37.26 83.28,37.26 C82.04,37.26 80.96,36.99 80.04,36.45 C79.12,35.91 78.36,35.18 77.76,34.26 C77.16,33.34 76.72,32.28 76.44,31.08 C76.16,29.88 76.02,28.64 76.02,27.36 C76.02,26.04 76.16,24.78 76.44,23.58 C76.72,22.38 77.16,21.32 77.76,20.4 C78.36,19.48 79.12,18.75 80.04,18.21 C80.96,17.67 82.04,17.4 83.28,17.4 C84.56,17.4 85.65,17.67 86.55,18.21 C87.45,18.75 88.2,19.48 88.8,20.4 C89.4,21.32 89.84,22.38 90.12,23.58 C90.4,24.78 90.54,26.04 90.54,27.36 Z M67.8,-5.68434189e-14 L67.8,42.84 L75.9,42.84 L75.9,38.88 L76.02,38.88 C76.94,40.6 78.3,41.82 80.1,42.54 C81.9,43.26 83.94,43.62 86.22,43.62 C87.78,43.62 89.32,43.3 90.84,42.66 C92.36,42.02 93.73,41.04 94.95,39.72 C96.17,38.4 97.16,36.71 97.92,34.65 C98.68,32.59 99.06,30.14 99.06,27.3 C99.06,24.46 98.68,22.01 97.92,19.95 C97.16,17.89 96.17,16.2 94.95,14.88 C93.73,13.56 92.36,12.58 90.84,11.94 C89.32,11.3 87.78,10.98 86.22,10.98 C84.3,10.98 82.45,11.35 80.67,12.09 C78.89,12.83 77.48,14 76.44,15.6 L76.32,15.6 L76.32,-5.68434189e-14 L67.8,-5.68434189e-14 Z"/>
            <polygon fill="#577A27" points="112.38 26.52 101.22 42.84 110.76 42.84 117.24 33.06 123.72 42.84 133.44 42.84 121.98 26.34 132.18 11.82 122.76 11.82 117.36 19.92 111.9 11.82 102.18 11.82"/>
        </g>
    </g>
</svg>