<svg height="163" viewBox="0 0 265 163" width="265" xmlns="http://www.w3.org/2000/svg"><g fill="none" stroke="#fff" transform="translate(1 36)"><g fill="#000"><path d="m39.8113402 22.5h17.6886598v62.454717h-16.8659794v-7.5187691c-2.2885669 3.0010763-4.8309311 5.2110946-7.8665423 6.6391309-3.4384061 1.6175223-6.9569723 2.4249212-10.5551072 2.4249212-4.5451068 0-8.2708303-.6118757-11.1805682-1.8213143-2.94902055-1.2257665-5.26863785-2.9657009-6.96486109-5.2123124-1.68627454-2.2334346-2.87435673-4.9527442-3.55702628-8.1613788-.67264185-3.1615031-1.00991553-6.6630953-1.00991553-10.5049945v-38.3h17.6886598v35.209434c0 4.9475981.7436758 8.6482797 2.2739901 11.0860499 1.4874845 2.3695429 4.1474044 3.5101765 7.9208553 3.5101765 4.3460058 0 7.5168465-1.2767604 9.4712265-3.8996882 1.9920053-2.6734237 2.9566085-7.0803007 2.9566085-13.1927647z"/><path d="m95.2025052 21.5c3.3656817 0 6.6311668.317106 9.7964978.9509081 3.194043.6395514 6.043736 1.7202767 8.5503 3.2391182 2.522664 1.5285971 4.618641 3.5595362 6.286915 6.0938807 1.744313 2.6498604 2.762443 6.0236012 3.036977 10.1278577h-17.075663c-.138014-3.2479647-1.257987-5.464638-3.445018-6.584351-2.156848-1.1042601-4.699812-1.6509431-7.6260004-1.6509431-.9357848 0-1.9495366.0580445-3.0412771.1736889-1.0574591.112013-2.0209165.3534205-2.8896609.7268477-.8401787.3611483-1.5527658.88451-2.1372777 1.5707384-.566067.6645737-.8326194 1.5611244-.8326194 2.6757838 0 1.3335488.4947402 2.4228664 1.4892216 3.2656026 1.067623.9047172 2.4615153 1.6354682 4.1766687 2.2006959 1.7685496.5828244 3.792648 1.1069998 6.072096 1.573256 2.304621.4714054 4.6489772.9820915 7.0296172 1.5312812 2.476354.5528289 4.892787 1.2241478 7.249316 2.0139031 2.389364.8007593 4.514954 1.8627008 6.377765 3.1838955 1.884227 1.3363831 3.399652 2.9968551 4.546559 4.9811581 1.14969 1.9891178 1.733078 4.4433439 1.733078 7.3678547 0 4.1042994-.842956 7.541224-2.510905 10.3163945-1.667684 2.7747298-3.844196 5.0061334-6.528682 6.6950506-2.66738 1.6781547-5.718121 2.8585831-9.153614 3.5378817-3.403376.6729482-6.8668064 1.0094967-10.3903063 1.0094967-3.6044861 0-7.1288549-.3564843-10.5731331-1.0691962-3.4723432-.7185193-6.5603799-1.9175949-9.2654164-3.5940401-2.7222141-1.687091-4.9573295-3.9160586-6.7044724-6.6877878-1.8190035-2.8857314-2.7884467-6.5312104-2.8890933-10.9430935h17.0900894c-.0738327 1.9197579.2711985 3.5533227 1.0528022 4.8954343.7156397 1.2288433 1.6378532 2.2348885 2.7679125 3.0169501 1.1430047.7910206 2.4580456 1.3733777 3.943757 1.7500048 1.5075352.3821595 3.073081.5729049 4.696552.5729049 1.1574409 0 2.37267-.1341254 3.64581-.4011197 1.2581704-.2638549 2.4023604-.6775605 3.4318554-1.2430096 1.005533-.552288 1.843611-1.2885407 2.513982-2.2090429.657278-.9025222.975158-2.0423027.975158-3.4115337 0-1.1279527-.379269-2.1146751-1.136816-2.9605452-.798073-.8911203-2.000791-1.6245573-3.595004-2.2179186-3.3541941-1.2484206-8.0307345-2.4953904-14.0357834-3.7453131-2.473895-.5522801-4.8879308-1.2032058-7.2421205-1.9527284-2.3875558-.7601458-4.5115358-1.7613269-6.3729374-3.0015097-1.8873876-1.2574962-3.4051374-2.8398094-4.5539462-4.7462765-1.1530164-1.9134496-1.7377136-4.2526783-1.7377136-7.0227673 0-4.0306719.8057748-7.3313539 2.3948179-9.9094123 1.5917522-2.5824539 3.6938539-4.619961 6.3059207-6.1129196 2.5852112-1.4776089 5.4931504-2.5172902 8.7248297-3.1163516 3.2029145-.5937291 6.4858934-.8907283 9.848962-.8907283z"/><path d="m151.398273-.5v29.7959772c2.178219-2.640193 4.770004-4.613106 7.936674-5.9217592 3.591636-1.4842744 7.324525-2.22635 11.198642-2.22635 3.159091 0 6.277967.6430901 9.356195 1.9314801 3.078217 1.2883849 5.853889 3.2596837 8.324762 5.917192 2.460337 2.646176 4.460306 6.032185 5.993174 10.1623609 1.525455 4.1101997 2.29228 8.9979885 2.29228 14.665033 0 5.6670444-.766825 10.5548333-2.29228 14.665033-1.532868 4.1301759-3.532837 7.5161849-5.993174 10.1623609-2.470873 2.6575082-5.246545 4.628807-8.324762 5.9171919-3.078228 1.28839-6.197104 1.9314802-9.356195 1.9314802-4.59131 0-8.698544-.7235426-12.322938-2.1646801-3.141473-1.249118-5.627982-3.2381092-7.459389-5.9671259l-.201013 6.5939793h-17.050249v-85.4621733zm13.304222 35.3053645c-2.361861 0-4.420978.5059357-6.174125 1.5288383-1.757929 1.0256929-3.209582 2.4127774-4.355994 4.1601568-1.15957 1.7674352-2.008248 3.8044477-2.54933 6.109583-.546828 2.3296145-.819783 4.7757464-.819783 7.3382857 0 2.4842782.273093 4.8909619.819783 7.2199914.541082 2.3051353 1.38976 4.3421478 2.54933 6.1095831 1.146412 1.7473793 2.598065 3.1344638 4.355994 4.1601567 1.753147 1.0229026 3.812264 1.5288383 6.174125 1.5288383 2.436923 0 4.514947-.5037891 6.229484-1.5263947 1.720633-1.0262414 3.153644-2.4143377 4.300635-4.1626003 1.15957-1.7674353 2.008248-3.8044478 2.54933-6.1095831.546691-2.3290295.819783-4.7357132.819783-7.2199914 0-2.5625393-.272955-5.0086712-.819783-7.3382857-.541082-2.3051353-1.38976-4.3421478-2.54933-6.109583-1.146991-1.7482627-2.580002-3.136359-4.300635-4.1626004-1.714537-1.0226056-3.792561-1.5263947-6.229484-1.5263947z"/></g><path d="m221.478608 23.5 10.578695 15.5366752 10.462446-15.5366752h19.945333l-20.616658 29.0548285 23.113134 32.9451715h-20.535833l-12.604496-18.8331481-12.604496 18.8331481h-20.169782l22.511525-32.5907593-20.612613-29.4092407z" fill="#577a27"/></g></svg>